#!OML:ASF H:\Dans Jumps\Project 1\Capture day 1\Session 1\subject.ASF
:FULLY-SPECIFIED
:DEGREES
266
root 0.410552 16.8868 4.18754 -1.62635 0.400757 -1.42882
lowerback 13.2652 0.262768 -0.741574
upperback 6.7982 0.278699 0.976707
thorax -0.309814 0.105302 1.39647
lowerneck -7.62273 -0.0160013 -0.341256
upperneck 27.61 0.070546 -0.0961613
head 10.0024 -0.0108551 0.0329709
rclavicle -6.59717e-015 1.71452e-015
rhumerus -33.4876 -14.0637 -73.6389
rradius 35.9282
rwrist 21.1611
rhand -23.5743 -23.2062
rfingers 7.12502
rthumb 2.88846 -53.1664
lclavicle -6.59717e-015 1.71452e-015
lhumerus -33.2178 -9.16893 81.5525
lradius 26.3233
lwrist 37.9947
lhand -21.7205 -7.34165
lfingers 7.12502
lthumb 4.6787 22.5867
rfemur -31.9045 -0.839541 19.8559
rtibia 28.715
rfoot -8.17676 -0.30029
rtoes -3.35224
lfemur -30.2545 5.88903 -18.7758
ltibia 29.5653
lfoot -9.79935 4.52341
ltoes -34.323
267
root 0.419188 16.676 4.42405 -2.58983 0.293372 -1.29615
lowerback 13.5256 0.303567 -0.787209
upperback 6.70315 0.326517 0.985608
thorax -0.55034 0.12981 1.42448
lowerneck -7.70436 -0.00603404 -0.324668
upperneck 27.6264 0.0749129 -0.0701552
head 10.0242 -0.00418034 0.0397644
rclavicle -3.36692e-015 -1.63997e-015
rhumerus -32.6807 -14.3557 -73.7355
rradius 35.4292
rwrist 21.6839
rhand -23.6361 -23.4583
rfingers 7.12502
rthumb 2.8288 -53.4193
lclavicle -3.36692e-015 -1.63997e-015
lhumerus -32.4229 -8.64315 81.5058
lradius 25.7543
lwrist 36.9886
lhand -21.9161 -7.37314
lfingers 7.12502
lthumb 4.48974 22.5593
rfemur -32.3035 -0.636488 19.7076
rtibia 31.8051
rfoot -7.19777 0.172245
rtoes -1.26314
lfemur -30.4799 5.125 -18.7484
ltibia 32.4465
lfoot -8.30678 4.31673
ltoes -35.0154
268
root 0.42557 16.4759 4.63209 -3.46372 0.179217 -1.22129
lowerback 13.91 0.342435 -0.824331
upperback 6.63442 0.372624 1.03206
thorax -0.829345 0.153222 1.48655
lowerneck -7.85413 0.0149467 -0.279121
upperneck 27.4577 0.111332 -0.127044
head 9.99167 0.0112944 0.0158451
rclavicle -7.72775e-015 -1.98785e-016
rhumerus -31.4874 -14.7558 -73.9135
rradius 34.8165
rwrist 22.3818
rhand -23.7262 -23.8264
rfingers 7.12502
rthumb 2.74175 -53.7885
lclavicle -7.72775e-015 -1.98785e-016
lhumerus -31.3063 -7.88925 81.3878
lradius 25.1315
lwrist 35.7085
lhand -22.3265 -7.49571
lfingers 7.12502
lthumb 4.09347 22.4447
rfemur -33.225 -0.20323 19.5677
rtibia 35.655
rfoot -6.17921 0.300331
rtoes 2.40879
lfemur -31.3117 4.29428 -18.5971
ltibia 36.3026
lfoot -7.1203 3.71736
ltoes -32.789
269
root 0.428339 16.2601 4.8248 -4.22039 -0.00894876 -1.26444
lowerback 14.354 0.397628 -0.810578
upperback 6.61238 0.447356 1.14136
thorax -1.09179 0.190623 1.58087
lowerneck -8.08117 0.0516202 -0.243733
upperneck 27.1505 0.188773 -0.249505
head 9.92396 0.0376006 -0.0247879
rclavicle 4.37326e-015 2.98177e-015
rhumerus -29.9064 -15.2619 -74.1773
rradius 34.133
rwrist 23.1849
rhand -23.8499 -24.3009
rfingers 7.12502
rthumb 2.62235 -54.2645
lclavicle 4.37326e-015 2.98177e-015
lhumerus -29.8805 -6.89974 81.2321
lradius 24.5142
lwrist 34.3008
lhand -22.917 -7.7303
lfingers 7.12502
lthumb 3.52323 22.2203
rfemur -34.6221 0.329246 19.584
rtibia 40.0632
rfoot -5.42856 0.134747
rtoes 6.40574
lfemur -32.669 3.68973 -18.312
ltibia 40.8918
lfoot -6.57948 3.03931
ltoes -27.6799
270
root 0.427227 16.0298 5.01299 -4.86529 -0.323768 -1.41429
lowerback 14.7881 0.491907 -0.753189
upperback 6.6425 0.580587 1.30308
thorax -1.29604 0.256435 1.69585
lowerneck -8.35633 0.100644 -0.206457
upperneck 26.7579 0.298376 -0.432523
head 9.83541 0.072527 -0.083131
rclavicle 3.52843e-015 -1.39149e-015
rhumerus -28.0425 -15.8265 -74.5401
rradius 33.4615
rwrist 23.9971
rhand -24.0249 -24.8409
rfingers 7.12502
rthumb 2.45331 -54.8065
lclavicle 3.52843e-015 -1.39149e-015
lhumerus -28.271 -5.7755 81.087
lradius 24.0189
lwrist 32.9732
lhand -23.6499 -8.09541
lfingers 7.12502
lthumb 2.8155 21.8658
rfemur -36.2476 0.925013 19.7786
rtibia 44.6333
rfoot -5.22797 -0.224498
rtoes 9.46103
lfemur -34.2892 3.46112 -17.9196
ltibia 45.7599
lfoot -6.80032 2.59432
ltoes -20.8269
271
root 0.423357 15.8025 5.20243 -5.42272 -0.774128 -1.63606
lowerback 15.1503 0.627792 -0.672108
upperback 6.72461 0.772914 1.49865
thorax -1.40968 0.350546 1.82291
lowerneck -8.64996 0.15898 -0.188262
upperneck 26.3484 0.4273 -0.630097
head 9.74525 0.113094 -0.140726
rclavicle -1.13804e-014 5.76476e-015
rhumerus -26.0429 -16.3447 -75.0101
rradius 32.9073
rwrist 24.7276
rhand -24.2154 -25.3969
rfingers 7.12502
rthumb 2.26934 -55.3646
lclavicle -1.13804e-014 5.76476e-015
lhumerus -26.6362 -4.69217 81.0124
lradius 23.7623
lwrist 31.9736
lhand -24.4146 -8.56311
lfingers 7.12502
lthumb 2.07696 21.4065
rfemur -37.773 1.49976 20.1416
rtibia 48.9228
rfoot -5.68702 -0.670857
rtoes 11.1459
lfemur -35.8083 3.63068 -17.4718
ltibia 50.3681
lfoot -7.80344 2.50159
ltoes -14.0616
272
root 0.419209 15.605 5.39446 -5.95953 -1.31952 -1.86778
lowerback 15.4311 0.789994 -0.596824
upperback 6.85408 0.999057 1.69917
thorax -1.43197 0.460298 1.9526
lowerneck -8.93704 0.231042 -0.192725
upperneck 26.0229 0.573092 -0.803458
head 9.68482 0.1618 -0.18387
rclavicle -6.80837e-015 3.57812e-015
rhumerus -24.064 -16.6613 -75.5863
rradius 32.5601
rwrist 25.3077
rhand -24.4121 -25.8913
rfingers 7.12502
rthumb 2.07938 -55.8609
lclavicle -6.80837e-015 3.57812e-015
lhumerus -25.12 -3.84901 81.0496
lradius 23.8134
lwrist 31.496
lhand -25.0738 -9.09361
lfingers 7.12502
lthumb 1.4403 20.8813
rfemur -38.8456 1.92022 20.6133
rtibia 52.5505
rfoot -6.72001 -1.13665
rtoes 10.8723
lfemur -36.8671 4.15892 -17.0616
ltibia 54.2774
lfoot -9.22026 2.79232
ltoes -10.4198
273
root 0.417053 15.4608 5.58543 -6.53038 -1.86701 -2.03712
lowerback 15.6547 0.951919 -0.555805
upperback 7.0109 1.21891 1.86868
thorax -1.39535 0.566143 2.07006
lowerneck -9.21372 0.308433 -0.215038
upperneck 25.8989 0.716202 -0.918228
head 9.69465 0.213159 -0.203859
rclavicle -5.86415e-015 5.76476e-015
rhumerus -22.2385 -16.6679 -76.2459
rradius 32.4696
rwrist 25.7185
rhand -24.5714 -26.2576
rfingers 7.12502
rthumb 1.92551 -56.2287
lclavicle -5.86415e-015 5.76476e-015
lhumerus -23.8123 -3.43362 81.2047
lradius 24.1728
lwrist 31.6164
lhand -25.4811 -9.5825
lfingers 7.12502
lthumb 1.04689 20.3947
rfemur -39.2707 2.13254 21.0647
rtibia 55.3669
rfoot -8.05484 -1.58492
rtoes 8.39566
lfemur -37.2584 4.86379 -16.7601
ltibia 57.264
lfoot -10.6632 3.46088
ltoes -10.1046
274
root 0.419519 15.3608 5.77352 -7.15801 -2.30768 -2.09565
lowerback 15.8805 1.07526 -0.555139
upperback 7.16474 1.38104 1.981
thorax -1.36071 0.643355 2.15936
lowerneck -9.42022 0.386134 -0.231187
upperneck 25.984 0.848069 -0.984335
head 9.76579 0.264264 -0.209373
rclavicle -1.04362e-014 -8.94531e-015
rhumerus -20.6217 -16.2949 -76.9617
rradius 32.6282
rwrist 25.9823
rhand -24.6847 -26.4569
rfingers 7.12502
rthumb 1.81606 -56.4289
lclavicle -1.04362e-014 -8.94531e-015
lhumerus -22.7182 -3.51617 81.4541
lradius 24.7556
lwrist 32.2344
lhand -25.5661 -9.94454
lfingers 7.12502
lthumb 0.964859 20.033
rfemur -39.127 2.07533 21.3762
rtibia 57.4858
rfoot -9.51511 -1.92945
rtoes 5.30602
lfemur -37.0231 5.54227 -16.6183
ltibia 59.419
lfoot -12.0443 4.43524
ltoes -11.7784
275
root 0.427055 15.2905 5.95779 -7.81356 -2.56126 -2.01276
lowerback 16.1215 1.13857 -0.613754
upperback 7.28521 1.45478 2.02113
thorax -1.36517 0.677032 2.22037
lowerneck -9.56939 0.455741 -0.265961
upperneck 26.3136 0.952589 -0.963191
head 9.91348 0.309161 -0.184426
rclavicle 3.47873e-016 9.93923e-016
rhumerus -19.2114 -15.5365 -77.7002
rradius 32.9901
rwrist 26.1333
rhand -24.757 -26.5178
rfingers 7.12502
rthumb 1.74625 -56.4904
lclavicle 3.47873e-016 9.93923e-016
lhumerus -21.7926 -4.0916 81.7589
lradius 25.4379
lwrist 33.1098
lhand -25.3781 -10.0805
lfingers 7.12502
lthumb 1.14637 19.8962
rfemur -38.6452 1.66021 21.4775
rtibia 59.1523
rfoot -10.9234 -2.01819
rtoes 3.05779
lfemur -36.3809 6.08356 -16.6609
ltibia 60.9955
lfoot -13.2925 5.30568
ltoes -13.3374
276
root 0.438113 15.2345 6.13797 -8.3921 -2.6339 -1.85099
lowerback 16.3111 1.14265 -0.689101
upperback 7.34938 1.44788 2.00631
thorax -1.39758 0.671831 2.24682
lowerneck -9.68041 0.505611 -0.287408
upperneck 26.8408 1.01897 -0.9042
head 10.1262 0.340828 -0.152611
rclavicle -1.16786e-014 9.93923e-015
rhumerus -17.9493 -14.4455 -78.4326
rradius 33.4976
rwrist 26.189
rhand -24.8189 -26.4961
rfingers 7.12502
rthumb 1.68649 -56.4691
lclavicle -1.16786e-014 9.93923e-015
lhumerus -20.9663 -5.08701 82.0727
lradius 26.1224
lwrist 33.9765
lhand -25.0397 -10.0048
lfingers 7.12502
lthumb 1.47319 19.9699
rfemur -38.119 1.15545 21.3848
rtibia 60.6186
rfoot -12.3237 -2.01467
rtoes 1.697
lfemur -35.6648 6.40367 -16.8006
ltibia 62.2789
lfoot -14.449 6.07638
ltoes -14.3446
